<?xml version="1.0" standalone="no"?>
<!DOCTYPE svg PUBLIC "-//W3C//DTD SVG 20010904//EN"
 "http://www.w3.org/TR/2001/REC-SVG-20010904/DTD/svg10.dtd">
<svg version="1.0" xmlns="http://www.w3.org/2000/svg"
 width="288.000000pt" height="288.000000pt" viewBox="0 0 288.000000 288.000000"
 preserveAspectRatio="xMidYMid meet">
<metadata>
Created by potrace 1.14, written by Peter Selinger 2001-2017
</metadata>
<g transform="translate(0.000000,288.000000) scale(0.100000,-0.100000)"
fill="#000000" stroke="none">
<path d="M0 1440 l0 -1440 1440 0 1440 0 0 1440 0 1440 -1440 0 -1440 0 0
-1440z m1732 948 c8 -7 18 -22 21 -33 3 -11 23 -67 44 -125 22 -58 59 -157 82
-220 24 -63 60 -161 82 -217 21 -56 39 -106 39 -110 0 -4 21 -62 46 -128 59
-153 63 -164 119 -320 26 -71 63 -173 83 -225 19 -52 51 -142 72 -200 21 -58
59 -159 84 -225 42 -110 44 -121 29 -132 -24 -18 -452 -18 -476 0 -9 6 -41 89
-72 184 -34 106 -61 173 -71 177 -23 9 -747 7 -759 -2 -6 -4 -35 -80 -64 -169
-30 -90 -60 -172 -68 -183 -13 -19 -25 -20 -241 -20 -125 0 -234 4 -242 10
-17 10 -16 12 83 280 35 96 117 319 181 495 64 176 123 336 131 355 23 58 133
356 260 707 19 51 36 97 40 103 10 16 577 13 597 -2z"/>
<path d="M1424 1889 c-7 -13 -72 -199 -189 -543 -30 -88 -52 -163 -49 -168 7
-11 491 -10 499 1 5 10 -29 119 -160 501 -68 198 -85 234 -101 209z"/>
</g>
</svg>
